<?xml version="1.0" encoding="utf-8"?>
<!-- Generator: Adobe Illustrator 23.0.5, SVG Export Plug-In . SVG Version: 6.00 Build 0)  -->
<svg version="1.1" id="Layer_1" xmlns="http://www.w3.org/2000/svg" xmlns:xlink="http://www.w3.org/1999/xlink" x="0px" y="0px"
	 viewBox="0 0 345.83 45.35" style="enable-background:new 0 0 345.83 45.35;" xml:space="preserve">
<style type="text/css">
	.st0{fill:#F79146;}
	.st1{fill:#2A292B;}
</style>
<g>
	<g>
		<path class="st0" d="M23.69,1.78c-11.52,0-20.85,9.34-20.85,20.85c0,11.52,9.33,20.85,20.85,20.85c11.51,0,20.85-9.34,20.85-20.85
			C44.54,11.12,35.2,1.78,23.69,1.78z"/>
		<g>
			<g>
				<path class="st1" d="M42.63,43.49h-6.6V31.47H26.7v12.01h-6.41V13.92h6.41v12.26h9.33V13.92h6.6V43.49z"/>
				<path class="st1" d="M70.84,43.49h-8.47L52.35,21.62v21.87h-6.37V13.92h8.58l9.79,22.17V13.92h6.49V43.49z"/>
				<path class="st1" d="M97.25,18.96h-8.52v24.62h-6.18V18.96h-8.36v-5.04h23.06V18.96z"/>
			</g>
			<path class="st1" d="M112.82,43.49h-7.66c-1.41,0-2.76-0.35-4.06-1.06c-1.41-0.77-2.48-1.99-3.21-3.66
				c-0.74-1.68-1.11-3.52-1.11-5.53c0-1.99,0.35-3.79,1.07-5.41c0.79-1.76,1.87-3.04,3.26-3.84c0.76-0.43,1.5-0.74,2.2-0.92
				c0.7-0.17,1.51-0.26,2.42-0.26h6.99v3.7h-6.36c-0.69,0-1.28,0.1-1.74,0.3c-0.48,0.2-0.94,0.57-1.4,1.09
				c-0.46,0.52-0.78,1.03-0.96,1.53c-0.18,0.49-0.26,1.11-0.26,1.84h10.84v3.7h-10.84c0,0.67,0.08,1.26,0.24,1.76
				c0.16,0.5,0.45,1.02,0.87,1.55c0.42,0.53,0.85,0.94,1.31,1.21c0.45,0.28,0.99,0.41,1.62,0.41h6.79V43.49z"/>
			<path class="st1" d="M128.86,43.49h-6.81c-0.84,0-1.66-0.13-2.48-0.39c-1.58-0.53-2.84-1.75-3.76-3.67
				c-0.84-1.73-1.26-3.75-1.26-6.06c0-2.23,0.37-4.2,1.12-5.91c0.82-1.89,1.99-3.18,3.5-3.87c1.17-0.53,2.38-0.79,3.6-0.79h6.03
				v3.96h-6.33c-1.26,0-2.18,0.76-2.75,2.28c-0.44,1.18-0.67,2.73-0.67,4.65c0,1.62,0.28,2.99,0.85,4.12
				c0.66,1.32,1.59,1.98,2.78,1.98h6.17V43.49z"/>
			<path class="st1" d="M147.28,43.49h-4.62v-8.41h-7.1v8.41h-4.48V22.8h4.48v8.58h7.1V22.8h4.62V43.49z"/>
		</g>
	</g>
	<g>
		<path class="st1" d="M174.21,21.13h-18.49c-0.51,0-0.77-0.26-0.77-0.77v-2.41c0-0.49,0.26-0.74,0.77-0.74h18.49
			c0.51,0,0.77,0.24,0.77,0.74v2.45C174.98,20.88,174.72,21.13,174.21,21.13z M165.32,36.71c-1.07,0-2.08-0.17-3.03-0.52
			c-0.95-0.35-1.78-0.84-2.49-1.47c-0.71-0.63-1.28-1.39-1.7-2.28c-0.42-0.89-0.63-1.88-0.63-2.98c0-1.07,0.21-2.05,0.63-2.92
			s0.99-1.62,1.7-2.24c0.71-0.62,1.55-1.1,2.5-1.44c0.96-0.34,1.97-0.51,3.05-0.51c1.05,0,2.05,0.17,3.01,0.51
			c0.96,0.34,1.79,0.82,2.5,1.44c0.71,0.62,1.28,1.36,1.72,2.24c0.43,0.88,0.65,1.85,0.65,2.92c0,1.07-0.21,2.05-0.63,2.94
			c-0.42,0.89-0.99,1.65-1.72,2.29c-0.73,0.64-1.57,1.14-2.52,1.49C167.41,36.53,166.39,36.71,165.32,36.71z M169.9,15.56h-9.59
			c-0.21,0-0.39-0.04-0.53-0.12c-0.14-0.08-0.21-0.29-0.21-0.61v-2.45c0-0.3,0.07-0.5,0.21-0.6c0.14-0.09,0.32-0.14,0.53-0.14h9.59
			c0.49,0,0.74,0.26,0.74,0.77v2.38C170.64,15.31,170.4,15.56,169.9,15.56z M165.35,26.42c-0.49,0-0.94,0.09-1.35,0.26
			c-0.41,0.18-0.75,0.42-1.03,0.72c-0.28,0.3-0.5,0.64-0.65,1.02c-0.15,0.37-0.23,0.75-0.23,1.12c0,0.37,0.08,0.75,0.23,1.12
			c0.15,0.37,0.37,0.71,0.65,1.02c0.28,0.3,0.62,0.55,1.03,0.73c0.41,0.19,0.86,0.28,1.35,0.28c0.51,0,0.97-0.09,1.38-0.28
			c0.41-0.19,0.75-0.43,1.03-0.73c0.28-0.3,0.49-0.64,0.65-1.02c0.15-0.37,0.23-0.75,0.23-1.12c0-0.37-0.08-0.75-0.23-1.12
			c-0.15-0.37-0.37-0.71-0.65-1.02c-0.28-0.3-0.63-0.54-1.03-0.72C166.33,26.5,165.87,26.42,165.35,26.42z M185.73,26.94h-4.34
			v15.96c0,0.28-0.04,0.46-0.12,0.54c-0.08,0.08-0.25,0.12-0.51,0.12h-3.54c-0.26,0-0.44-0.04-0.54-0.12
			c-0.1-0.08-0.16-0.26-0.16-0.54V10.66c0-0.26,0.05-0.43,0.16-0.52c0.11-0.09,0.29-0.14,0.54-0.14h3.54c0.26,0,0.43,0.05,0.51,0.14
			c0.08,0.09,0.12,0.27,0.12,0.52v12.29h4.34c0.21,0,0.38,0.03,0.51,0.09c0.13,0.06,0.19,0.25,0.19,0.58v2.66
			c0,0.28-0.06,0.46-0.19,0.54C186.11,26.9,185.94,26.94,185.73,26.94z"/>
		<path class="st1" d="M206.64,32.54c-1.17,0.28-2.43,0.52-3.8,0.72c-1.37,0.2-2.73,0.36-4.1,0.47c-1.36,0.12-2.67,0.19-3.92,0.21
			c-1.25,0.02-2.33,0-3.24-0.07c-0.98-0.07-1.67-0.29-2.07-0.66c-0.4-0.37-0.6-1.02-0.6-1.93V12.83c0-0.49,0.22-0.74,0.67-0.74h3.47
			c0.49,0,0.73,0.25,0.73,0.74v16.1c0,0.51,0.27,0.78,0.81,0.81c0.79,0.05,1.67,0.05,2.64,0c0.97-0.05,1.96-0.12,2.98-0.23
			c1.02-0.1,2.01-0.23,2.99-0.38c0.98-0.15,1.89-0.32,2.73-0.51c0.28-0.07,0.46-0.06,0.54,0.04c0.08,0.09,0.15,0.2,0.19,0.32
			l0.52,2.91C207.22,32.23,207.04,32.45,206.64,32.54z M217.81,26.63h-4.34v16.28c0,0.28-0.04,0.46-0.12,0.54
			c-0.08,0.08-0.25,0.12-0.51,0.12h-3.54c-0.26,0-0.44-0.04-0.54-0.12c-0.11-0.08-0.16-0.26-0.16-0.54V10.66
			c0-0.26,0.05-0.43,0.16-0.52c0.1-0.09,0.28-0.14,0.54-0.14h3.54c0.26,0,0.43,0.05,0.51,0.14c0.08,0.09,0.12,0.27,0.12,0.52v11.97
			h4.34c0.21,0,0.38,0.03,0.51,0.09c0.13,0.06,0.19,0.25,0.19,0.58v2.66c0,0.28-0.07,0.46-0.19,0.54
			C218.19,26.58,218.02,26.63,217.81,26.63z"/>
		<path class="st1" d="M233.87,28.27c-0.82,0.21-1.72,0.38-2.7,0.51c-0.98,0.13-1.97,0.23-2.98,0.32c-1,0.08-1.99,0.13-2.96,0.16
			c-0.97,0.02-1.85,0.01-2.64-0.04c-0.98-0.05-1.71-0.28-2.19-0.7c-0.48-0.42-0.72-1.11-0.72-2.07V13.78c0-0.47,0.04-0.85,0.11-1.14
			c0.07-0.29,0.19-0.52,0.37-0.68c0.17-0.16,0.42-0.27,0.73-0.33c0.32-0.06,0.72-0.09,1.21-0.09h9.56c0.47,0,0.7,0.2,0.7,0.6v2.73
			c0,0.4-0.23,0.59-0.7,0.59h-6.69c-0.23,0-0.37,0.05-0.42,0.14c-0.05,0.09-0.07,0.21-0.07,0.35v2.49c0.49,0,0.94,0,1.35,0
			c0.41,0,0.82-0.01,1.24-0.02c0.42-0.01,0.88-0.02,1.36-0.04c0.49-0.01,1.09-0.04,1.79-0.09c0.19-0.02,0.36-0.01,0.52,0.05
			c0.16,0.06,0.25,0.2,0.25,0.44l0.07,2.45c0,0.26-0.04,0.44-0.12,0.56c-0.08,0.12-0.25,0.19-0.51,0.21
			c-0.77,0.05-1.42,0.08-1.94,0.1c-0.52,0.02-1,0.05-1.42,0.07c-0.42,0.02-0.83,0.04-1.23,0.04c-0.4,0-0.85,0-1.37,0v2.59
			c0,0.26,0.04,0.42,0.12,0.49c0.08,0.07,0.26,0.12,0.54,0.14c1.31,0.05,2.66,0.01,4.06-0.1c1.4-0.12,2.72-0.3,3.96-0.56
			c0.3-0.05,0.51-0.05,0.61-0.02c0.11,0.03,0.18,0.18,0.23,0.44l0.42,2.31c0.05,0.26,0.03,0.44-0.05,0.54
			C234.29,28.15,234.12,28.22,233.87,28.27z M247.24,43.5h-3.47c-0.49,0-0.74-0.23-0.74-0.7v-6.58c0-0.35-0.17-0.52-0.53-0.52h-16.8
			c-0.19,0-0.34-0.03-0.47-0.1c-0.13-0.07-0.19-0.23-0.19-0.49v-2.73c0-0.33,0.06-0.52,0.19-0.58c0.13-0.06,0.29-0.09,0.47-0.09
			h19.71c0.51,0,0.93,0.04,1.26,0.12c0.33,0.08,0.58,0.23,0.75,0.44c0.17,0.21,0.3,0.48,0.37,0.82c0.07,0.34,0.11,0.75,0.11,1.24
			v8.47C247.9,43.27,247.68,43.5,247.24,43.5z M233.45,22.14c-0.21,0-0.38-0.05-0.51-0.14c-0.13-0.09-0.19-0.28-0.19-0.56v-2.52
			c0-0.3,0.07-0.48,0.21-0.52c0.14-0.05,0.3-0.07,0.49-0.07h3.05v-7.11c0-0.26,0.05-0.43,0.16-0.52s0.29-0.14,0.54-0.14h3.29
			c0.26,0,0.43,0.05,0.53,0.14c0.09,0.09,0.14,0.27,0.14,0.52v17.86c0,0.28-0.05,0.46-0.14,0.54c-0.09,0.08-0.27,0.12-0.53,0.12
			h-3.29c-0.26,0-0.44-0.04-0.54-0.12c-0.11-0.08-0.16-0.26-0.16-0.54v-6.93H233.45z M247.28,30.02h-3.47
			c-0.26,0-0.43-0.05-0.52-0.16c-0.09-0.11-0.14-0.29-0.14-0.54V10.66c0-0.26,0.05-0.43,0.16-0.52c0.11-0.09,0.29-0.14,0.54-0.14
			h3.43c0.26,0,0.43,0.05,0.52,0.14c0.09,0.09,0.14,0.27,0.14,0.52v18.66c0,0.26-0.05,0.44-0.14,0.54
			C247.71,29.97,247.53,30.02,247.28,30.02z"/>
		<path class="st1" d="M268.41,34.89c-0.3,0.37-0.72,0.35-1.26-0.07c-0.44-0.33-0.95-0.78-1.51-1.37c-0.56-0.58-1.13-1.23-1.7-1.94
			c-0.57-0.71-1.12-1.48-1.65-2.29c-0.53-0.82-0.98-1.61-1.35-2.38c-0.42,0.91-0.89,1.8-1.4,2.68c-0.51,0.88-1.06,1.71-1.65,2.5
			c-0.58,0.79-1.19,1.53-1.82,2.21c-0.63,0.68-1.26,1.26-1.89,1.75c-0.33,0.26-0.57,0.4-0.74,0.42c-0.16,0.02-0.36-0.08-0.59-0.31
			l-1.93-2c-0.19-0.19-0.28-0.37-0.28-0.54c0-0.18,0.15-0.4,0.45-0.68c1.33-1.28,2.55-2.78,3.66-4.5c1.11-1.71,1.96-3.5,2.57-5.34
			c0.49-1.49,0.85-3.12,1.09-4.87c0.23-1.75,0.35-3.65,0.35-5.71c0-0.26,0.04-0.45,0.12-0.58c0.08-0.13,0.28-0.19,0.61-0.19
			l3.36,0.1c0.33,0.02,0.52,0.1,0.59,0.23c0.07,0.13,0.11,0.33,0.11,0.61c0,2.87-0.22,5.49-0.67,7.84c0.26,0.98,0.65,2.01,1.19,3.1
			c0.54,1.09,1.14,2.12,1.8,3.12c0.66,0.99,1.35,1.91,2.07,2.75c0.71,0.84,1.37,1.51,1.98,2c0.33,0.26,0.48,0.49,0.47,0.68
			c-0.01,0.2-0.12,0.43-0.33,0.68L268.41,34.89z M277.48,43.57h-3.5c-0.26,0-0.43-0.04-0.52-0.12c-0.09-0.08-0.14-0.26-0.14-0.54
			V10.66c0-0.26,0.05-0.43,0.14-0.52c0.09-0.09,0.27-0.14,0.52-0.14h3.5c0.26,0,0.43,0.05,0.53,0.14c0.09,0.09,0.14,0.27,0.14,0.52
			v32.25c0,0.28-0.05,0.46-0.14,0.54C277.91,43.53,277.74,43.57,277.48,43.57z"/>
		<path class="st1" d="M312.15,37.62h-30.08c-0.3,0-0.5-0.07-0.58-0.21c-0.08-0.14-0.12-0.31-0.12-0.52v-2.52
			c0-0.26,0.04-0.44,0.12-0.56c0.08-0.12,0.27-0.18,0.58-0.18h30.08c0.49,0,0.73,0.24,0.73,0.73v2.52
			C312.88,37.37,312.64,37.62,312.15,37.62z M285.78,28.52c-0.33,0.12-0.55,0.15-0.67,0.1c-0.12-0.05-0.25-0.19-0.39-0.42
			l-1.36-2.45c-0.3-0.54-0.25-0.89,0.17-1.05c1.7-0.63,3.2-1.35,4.5-2.17c1.29-0.82,2.4-1.74,3.31-2.77
			c0.91-1.03,1.63-2.17,2.15-3.43c0.52-1.26,0.87-2.67,1.03-4.24c0.05-0.26,0.12-0.44,0.21-0.56c0.09-0.12,0.3-0.16,0.63-0.14
			l3.33,0.21c0.42,0.05,0.67,0.12,0.75,0.23c0.08,0.11,0.1,0.32,0.05,0.65c-0.05,0.65-0.12,1.27-0.21,1.86
			c0.33,1.17,0.85,2.25,1.56,3.26c0.71,1,1.56,1.91,2.54,2.73c0.98,0.82,2.05,1.53,3.22,2.15c1.17,0.62,2.38,1.11,3.64,1.49
			c0.3,0.09,0.47,0.21,0.49,0.35c0.02,0.14-0.04,0.34-0.18,0.6l-1.26,2.59c-0.09,0.14-0.15,0.24-0.17,0.31
			c-0.05,0.09-0.09,0.14-0.14,0.14c-0.09,0.07-0.28,0.07-0.56,0c-1.03-0.23-2.07-0.6-3.13-1.1c-1.06-0.5-2.1-1.09-3.1-1.77
			c-1-0.68-1.94-1.45-2.8-2.31c-0.86-0.86-1.61-1.79-2.24-2.77c-1.21,1.98-2.81,3.69-4.8,5.13
			C290.38,26.57,288.19,27.7,285.78,28.52z"/>
		<path class="st1" d="M328.92,28.1c-0.82,0.21-1.72,0.38-2.7,0.51c-0.98,0.13-1.97,0.23-2.98,0.32c-1,0.08-1.99,0.13-2.96,0.16
			c-0.97,0.02-1.85,0.01-2.64-0.04c-0.98-0.05-1.71-0.28-2.19-0.7c-0.48-0.42-0.72-1.11-0.72-2.07V13.6c0-0.47,0.03-0.85,0.1-1.14
			c0.07-0.29,0.19-0.52,0.37-0.68c0.18-0.16,0.42-0.27,0.74-0.33c0.31-0.06,0.72-0.09,1.21-0.09h9.56c0.47,0,0.7,0.2,0.7,0.6v2.73
			c0,0.4-0.23,0.6-0.7,0.6h-6.69c-0.23,0-0.37,0.05-0.42,0.14c-0.05,0.09-0.07,0.21-0.07,0.35v2.49c0.49,0,0.94,0,1.35,0
			s0.82,0,1.24-0.02c0.42-0.01,0.88-0.02,1.37-0.04c0.49-0.01,1.09-0.04,1.79-0.09c0.19-0.02,0.36-0.01,0.53,0.05
			c0.16,0.06,0.24,0.2,0.24,0.44l0.07,2.45c0,0.26-0.04,0.44-0.12,0.56c-0.08,0.12-0.25,0.19-0.51,0.21
			c-0.77,0.05-1.42,0.08-1.94,0.1c-0.53,0.02-1,0.05-1.42,0.07c-0.42,0.02-0.83,0.04-1.23,0.04c-0.4,0-0.85,0-1.37,0v2.59
			c0,0.26,0.04,0.42,0.12,0.49c0.08,0.07,0.26,0.12,0.54,0.14c1.31,0.05,2.66,0.01,4.06-0.1c1.4-0.12,2.72-0.3,3.96-0.56
			c0.3-0.05,0.51-0.05,0.61-0.02c0.11,0.04,0.18,0.18,0.23,0.44l0.42,2.31c0.05,0.26,0.03,0.44-0.05,0.54
			C329.34,27.97,329.17,28.05,328.92,28.1z M340.4,43.05h-17.37c-0.58,0-1.05-0.04-1.4-0.1c-0.35-0.07-0.62-0.21-0.82-0.4
			c-0.2-0.2-0.33-0.46-0.4-0.79c-0.07-0.33-0.1-0.75-0.1-1.26v-6.86c0-1.03,0.18-1.72,0.52-2.07c0.35-0.35,1.02-0.53,2-0.53h17.4
			c0.58,0,1.06,0.04,1.42,0.12c0.36,0.08,0.64,0.22,0.84,0.42c0.2,0.2,0.33,0.47,0.4,0.81c0.07,0.34,0.11,0.77,0.11,1.28v6.86
			c0,0.51-0.04,0.93-0.12,1.26c-0.08,0.33-0.22,0.58-0.42,0.77c-0.2,0.19-0.47,0.31-0.81,0.39C341.3,43.01,340.89,43.05,340.4,43.05
			z M338.12,35.41c0-0.28-0.14-0.42-0.42-0.42h-12.11c-0.3,0-0.46,0.15-0.46,0.45v3.22c0,0.28,0.15,0.42,0.46,0.42h12.08
			c0.19,0,0.31-0.02,0.37-0.05c0.06-0.04,0.09-0.17,0.09-0.4V35.41z M328.5,21.97c-0.21,0-0.38-0.05-0.51-0.14
			c-0.13-0.09-0.19-0.28-0.19-0.56v-2.52c0-0.3,0.07-0.48,0.21-0.53c0.14-0.05,0.3-0.07,0.49-0.07h3.05v-6.93
			c0-0.26,0.05-0.43,0.16-0.52c0.11-0.09,0.29-0.14,0.54-0.14h3.29c0.26,0,0.43,0.05,0.52,0.14c0.09,0.09,0.14,0.27,0.14,0.52v17.26
			c0,0.28-0.05,0.46-0.14,0.54c-0.09,0.08-0.27,0.12-0.52,0.12h-3.29c-0.26,0-0.44-0.04-0.54-0.12c-0.1-0.08-0.16-0.26-0.16-0.54
			v-6.51H328.5z M342.33,29.36h-3.47c-0.26,0-0.43-0.05-0.52-0.16c-0.09-0.1-0.14-0.29-0.14-0.54v-18c0-0.44,0.23-0.66,0.7-0.66
			h3.43c0.26,0,0.43,0.05,0.53,0.14c0.09,0.09,0.14,0.27,0.14,0.52v18c0,0.26-0.05,0.44-0.14,0.54
			C342.76,29.3,342.58,29.36,342.33,29.36z"/>
	</g>
</g>
</svg>
